<?xml version="1.0" encoding="UTF-8"?>
<svg id="Layer_1" data-name="Layer 1" xmlns="http://www.w3.org/2000/svg" viewBox="0 0 400.7 401.18">
  <g>
    <rect x="128.78" y="51.1" width="182.12" height="31.06" fill="none"/>
    <path d="M131,57.08l-.84,2.54h-1.08l2.75-8.08h1.26l2.76,8.08h-1.12l-.86-2.54h-2.87ZM133.65,56.27l-.79-2.33c-.18-.53-.3-1.01-.42-1.48h-.02c-.12.48-.25.97-.41,1.46l-.79,2.34h2.43Z" fill="#231f20"/>
    <path d="M136.96,51.11h1.05v8.52h-1.05v-8.52Z" fill="#231f20"/>
    <path d="M139.74,59.62c.03-.4.05-.98.05-1.5v-7.02h1.04v3.65h.03c.37-.65,1.04-1.07,1.98-1.07,1.44,0,2.46,1.2,2.45,2.96,0,2.07-1.31,3.11-2.6,3.11-.84,0-1.51-.32-1.94-1.09h-.04l-.05.96h-.91ZM140.84,57.3c0,.13.03.26.05.38.2.73.81,1.24,1.58,1.24,1.1,0,1.76-.9,1.76-2.23,0-1.16-.6-2.16-1.73-2.16-.72,0-1.39.49-1.61,1.3-.02.12-.06.26-.06.43v1.04Z" fill="#231f20"/>
    <path d="M147.21,56.91c.02,1.43.94,2.01,1.99,2.01.76,0,1.21-.13,1.61-.3l.18.76c-.37.17-1.01.36-1.93.36-1.79,0-2.86-1.18-2.86-2.93s1.03-3.13,2.72-3.13c1.89,0,2.4,1.67,2.4,2.73,0,.22-.02.38-.04.49h-4.08ZM150.3,56.16c.01-.67-.28-1.71-1.46-1.71-1.07,0-1.54.98-1.62,1.71h3.08Z" fill="#231f20"/>
    <path d="M152.63,55.63c0-.68-.01-1.27-.05-1.81h.92l.04,1.14h.05c.26-.78.9-1.27,1.61-1.27.12,0,.21.01.3.04v1c-.11-.02-.22-.04-.36-.04-.74,0-1.27.56-1.41,1.36-.02.14-.05.31-.05.49v3.09h-1.04v-3.99Z" fill="#231f20"/>
    <path d="M158.11,52.15v1.67h1.51v.8h-1.51v3.13c0,.72.21,1.13.79,1.13.28,0,.48-.04.61-.07l.05.79c-.2.08-.53.14-.94.14-.49,0-.89-.16-1.14-.44-.3-.31-.41-.83-.41-1.51v-3.17h-.9v-.8h.9v-1.39l1.03-.28Z" fill="#231f20"/>
    <path d="M166,56.67c0,2.15-1.49,3.08-2.89,3.08-1.57,0-2.78-1.15-2.78-2.99,0-1.94,1.27-3.08,2.88-3.08s2.79,1.21,2.79,2.99ZM161.39,56.73c0,1.27.73,2.23,1.76,2.23s1.76-.95,1.76-2.25c0-.98-.49-2.23-1.74-2.23s-1.79,1.15-1.79,2.25Z" fill="#231f20"/>
  </g>
  <g>
    <path d="M254.29,209.02c-.64-.68-1.23-1.43-1.23-1.43-1-1.31-1.59-2.55-2.95-4.74-2.94-4.74-11.37-10.6-14.92-19.57-.79-1.99-1.75-5.27-1.59-9.9-9.2-2.12-19.88-3.4-31.74-2.78-10.12.53-19.23,2.35-27.18,4.76.34,4.69-.55,8.08-1.41,10.3-3.44,8.85-12,14.85-14.93,19.57-1.36,2.19-1.94,3.43-2.94,4.74,0,0-.6.75-1.24,1.43-4.21,4.47-10.65,3.41-11.5,6.46-.03.13-.08.36-.08.68v62.12c0,4.92,3.98,8.9,8.9,8.9h105.5c4.91,0,8.89-3.98,8.89-8.9v-65.15c-.55-.21-8.46-3.17-11.58-6.49ZM213.23,211.52c.54-.7,5.75,4.82,13.85,6.1,4.2.66,8.88.14,10.42-.03,3.97-.43,6.84-1.25,6.96-.87.12.4-2.78,1.66-4.71,2.36-1.18.44-3.07,1.11-5.67,1.51-1.65.25-4.79.69-8.72-.11-2.08-.42-5.11-1.04-7.67-3.26-1.13-.98-2.18-2.29-2.55-2.75-1.31-1.65-2.12-2.67-1.91-2.95ZM222.71,221.62c6.69,0,12.12,5.27,12.12,11.76s-5.43,11.77-12.12,11.77-12.12-5.27-12.12-11.77,5.43-11.76,12.12-11.76ZM169.89,216.9c1.54.17,6.22.69,10.42.03,8.1-1.28,13.31-6.8,13.85-6.1.21.28-.6,1.3-1.91,2.95-.37.46-1.42,1.77-2.55,2.75-2.56,2.22-5.59,2.84-7.67,3.26-3.93.8-7.07.35-8.72.11-2.6-.4-4.49-1.08-5.67-1.51-1.93-.7-4.83-1.96-4.71-2.36.12-.38,2.99.44,6.96.87ZM195.01,232.39c0,6.43-5.21,11.65-11.64,11.65s-11.65-5.22-11.65-11.65,5.21-11.65,11.65-11.65,11.64,5.22,11.64,11.65ZM161.46,266.47c-6.53,0-11.82-3.6-11.82-8.03s5.29-8.02,11.82-8.02,11.83,3.59,11.83,8.02-5.29,8.03-11.83,8.03ZM182.67,256.9c-1.71-.27-4.24-.7-6.49-2.6-1.08-.91-1.77-1.88-2.15-2.44-1.24-1.77-2.21-4.02-1.82-4.3.36-.26,1.3,1.59,3.55,2.42.74.28,1.84.52,5.94-.19,3.48-.59,3.45-.9,5.94-1.28,4.19-.64,6.73-.14,7.32-.02,1.09.23,4.59.97,4.74,2.44.06.53-.32,1.27-2.59,2.62-2.28,1.35-7.47,4.43-14.44,3.35ZM210.61,264.26c-3.39,2.9-7.92,2.54-9.38,2.43-1.42-.11-7-.55-9.04-4.26-.25-.45-1.15-2.07-.49-3.48.63-1.34,2.29-1.71,2.83-1.82,2.85-.64,3.76,1.24,7.03,1.66,4.56.59,6.81-2.55,9.86-.88.36.2,1.37.76,1.66,1.81.54,1.97-1.94,4.08-2.47,4.54ZM228.23,254.53c-2.25,1.9-4.78,2.33-6.49,2.59-6.97,1.09-12.16-1.99-14.44-3.34-2.27-1.35-2.65-2.09-2.59-2.62.15-1.47,3.65-2.21,4.74-2.44.59-.12,3.13-.62,7.32.02,2.49.38,2.46.68,5.94,1.28,4.1.71,5.2.46,5.94.19,2.25-.83,3.18-2.68,3.55-2.42.39.27-.58,2.52-1.82,4.3-.39.56-1.07,1.53-2.15,2.44ZM242.99,268.93c-6.53,0-11.83-3.59-11.83-8.03s5.3-8.02,11.83-8.02,11.83,3.59,11.83,8.02-5.3,8.03-11.83,8.03Z" fill="#af8d69" stroke="#231f20" stroke-miterlimit="10"/>
    <path d="M142.58,218.54v-.65" fill="none" stroke="#231f20" stroke-miterlimit="10"/>
    <path d="M200.5,241.33l-1.25,2.46c-.45.89-.91,1.92-.53,2.84.28.67.95,1.1,1.66,1.26s1.44.07,2.15-.06c.62-.11,1.3-.31,1.58-.87.18-.36.14-.79,0-1.17s-.37-.71-.58-1.05c-.55-.91-.94-1.91-1.15-2.95" fill="none" stroke="#231f20" stroke-linecap="round" stroke-miterlimit="10"/>
    <path d="M312.71,156.81c-1.71,3.43-5.15,10.15-12.69,16.51-12.84,10.82-27.93,12.46-34.14,12.78h-.01c-5.6-3.26-16.85-9.17-32.27-12.72-9.2-2.12-19.88-3.4-31.74-2.78-10.12.53-19.23,2.35-27.18,4.76-15.4,4.66-26.44,11.5-32.1,15.39-6.94.39-20.08.02-32.79-7.86-4.74-2.94-12.2-7.56-15.53-16.62-3.38-9.21-2.13-21.96,3.64-24.29,2.84-1.14,6.52.35,8.7,2.12,4.97,4.05,2.5,9.84,6,13.06,4.53,4.17,14.12-.54,27.53-4.96,0,0,9.18-3.03,28.69-7.13.96-.21,1.95-.41,2.97-.62,20-4.08,36.3-3.1,45.73-2.47,8.3.56,15.4,1.04,22,1.7h.02c10.66,1.07,19.99,2.61,30.82,5.72,6.41,1.84,17.76,5.5,22.9.29,3.42-3.46,1.82-8.55,6.76-12.29,2.53-1.93,6.89-3.58,10.58-1.84,3.66,1.73,4.75,5.9,5.06,7.13.48,1.85,1.13,5.94-2.95,14.12Z" fill="#442216" stroke="#231f20" stroke-miterlimit="10"/>
    <path d="M168.82,145.07c2.12-12.33,5.67-17.41,8.73-19.69.57-.43,1.95-1.8,4.1-3.45,1.01-.77,4.03-3.65,5.95-8.15,2.24-5.23,2.38-7.05,4.27-10.78,3.36-6.65,13.64-5.74,16.23-5.7,2.84.05,9.57.15,12.26,4.31.83,1.29.35,1.53,1.79,6.3,1.03,3.41,1.76,5.84,3.25,8.12,2.04,3.12,4.61,4.61,5.69,5.35,3.47,2.39,7.34,8.01,8.92,22.29" fill="#280e0e" stroke="#231f20" stroke-miterlimit="10"/>
    <path d="M265.87,186.1v29.41c-.55-.21-8.46-3.17-11.58-6.49-.64-.68-1.23-1.43-1.23-1.43-1-1.31-1.59-2.55-2.95-4.74-2.94-4.74-11.37-10.6-14.92-19.57-.79-1.99-1.75-5.27-1.59-9.9,15.42,3.55,26.67,9.46,32.27,12.72Z" fill="#231f20" stroke="#231f20" stroke-miterlimit="10"/>
    <path d="M265.88,215.51h-.01" fill="none" stroke="#231f20" stroke-miterlimit="10"/>
    <path d="M173.27,185.66c-3.44,8.85-12,14.85-14.93,19.57-1.36,2.19-1.94,3.43-2.94,4.74,0,0-.6.75-1.24,1.43-4.21,4.47-10.65,3.41-11.5,6.46-.03.13-.08.36-.08.68v-27.79c5.66-3.89,16.7-10.73,32.1-15.39.34,4.69-.55,8.08-1.41,10.3Z" fill="#231f20" stroke="#231f20" stroke-miterlimit="10"/>
    <line x1="174.68" y1="175.36" x2="174.68" y2="175.35" fill="none" stroke="#231f20" stroke-miterlimit="10"/>
    <path d="M265.88,225.57c.65-.81,2.69-3.16,5.99-3.82,1.71-.34,3.26-.13,3.87-.02,1.34.23,2.34.66,2.86.91.55.26,2.82,1.49,4.62,4.14.88,1.29,1.42,2.8,1.68,4.35.49,2.91,0,5.93-1.08,8.67s-2.72,5.24-4.57,7.54c-1.94,2.42-3.85,4.39-6.97,5.32-2.69.8-5.08.39-6.4.05" fill="#af8d69" stroke="#231f20" stroke-miterlimit="10"/>
    <path d="M142.58,223.61c-.65-.81-2.69-3.16-5.99-3.82-1.71-.34-3.26-.13-3.87-.02-1.34.23-2.34.66-2.86.91-.55.26-2.82,1.49-4.62,4.14-.88,1.29-1.42,2.8-1.68,4.35-.49,2.91,0,5.93,1.08,8.67s2.72,5.24,4.57,7.54c1.94,2.42,3.85,4.39,6.97,5.32,2.69.8,5.08.39,6.4.05" fill="#af8d69" stroke="#231f20" stroke-miterlimit="10"/>
    <path d="M272.82,230.65c.86,1.42.97,3.16.96,4.83-.01,3.11-.36,6.25-1.42,9.17" fill="#af8d69" stroke="#231f20" stroke-miterlimit="10"/>
    <path d="M273.78,237.89c.53.39,1.22.5,1.87.42s1.26-.35,1.84-.66" fill="#af8d69" stroke="#231f20" stroke-miterlimit="10"/>
    <g>
      <path d="M135.13,238.02c-.05-3.65.1-5.85,1.39-9.22" fill="#ffddb1" stroke="#231f20" stroke-linecap="round" stroke-miterlimit="10"/>
      <path d="M135.08,235.57c-.2-.14-.64-.63-2.08-.54-.72.05-1.39.28-2.03.56" fill="#ffddb1" stroke="#231f20" stroke-linecap="round" stroke-miterlimit="10"/>
    </g>
    <path d="M234.83,233.38c0,6.5-5.43,11.77-12.12,11.77s-12.12-5.27-12.12-11.77,5.43-11.76,12.12-11.76,12.12,5.27,12.12,11.76Z" fill="none" stroke="#231f20" stroke-linecap="round" stroke-miterlimit="10"/>
    <path d="M195.01,232.39c0,6.43-5.21,11.65-11.64,11.65s-11.65-5.22-11.65-11.65,5.21-11.65,11.65-11.65,11.64,5.22,11.64,11.65Z" fill="none" stroke="#231f20" stroke-linecap="round" stroke-miterlimit="10"/>
    <ellipse cx="184.66" cy="232.22" rx="4.92" ry="5.43" fill="#231f20"/>
    <ellipse cx="221.09" cy="232.65" rx="5.12" ry="5.61" fill="#231f20"/>
    <path d="M173.29,258.44c0,4.43-5.29,8.03-11.83,8.03s-11.82-3.6-11.82-8.03,5.29-8.02,11.82-8.02,11.83,3.59,11.83,8.02Z" fill="#d09470" stroke="#231f20" stroke-miterlimit="10"/>
    <path d="M254.82,260.9c0,4.44-5.3,8.03-11.83,8.03s-11.83-3.59-11.83-8.03,5.3-8.02,11.83-8.02,11.83,3.59,11.83,8.02Z" fill="#d09470" stroke="#231f20" stroke-miterlimit="10"/>
    <path d="M244.46,216.72c.12.4-2.78,1.66-4.71,2.36-1.18.44-3.07,1.11-5.67,1.51-1.65.25-4.79.69-8.72-.11-2.08-.42-5.11-1.04-7.67-3.26-1.13-.98-2.18-2.29-2.55-2.75-1.31-1.65-2.12-2.67-1.91-2.95.54-.7,5.75,4.82,13.85,6.1,4.2.66,8.88.14,10.42-.03,3.97-.43,6.84-1.25,6.96-.87Z" stroke="#231f20" stroke-miterlimit="10"/>
    <path d="M192.25,213.78c-.37.46-1.42,1.77-2.55,2.75-2.56,2.22-5.59,2.84-7.67,3.26-3.93.8-7.07.35-8.72.11-2.6-.4-4.49-1.08-5.67-1.51-1.93-.7-4.83-1.96-4.71-2.36.12-.38,2.99.44,6.96.87,1.54.17,6.22.69,10.42.03,8.1-1.28,13.31-6.8,13.85-6.1.21.28-.6,1.3-1.91,2.95Z" stroke="#231f20" stroke-miterlimit="10"/>
    <path d="M213.08,259.72c-.29-1.05-1.3-1.61-1.66-1.81-3.05-1.67-5.3,1.47-9.86.88-3.27-.42-4.18-2.3-7.03-1.66-.54.11-2.2.48-2.83,1.82-.66,1.41.24,3.03.49,3.48,2.04,3.71,7.62,4.15,9.04,4.26,1.46.11,5.99.47,9.38-2.43.53-.46,3.01-2.57,2.47-4.54ZM191.4,260.18c2.11-.96,8.1,2.14,11.38,2.15,2.66.01,8.7-2.57,10.37-1.43" fill="#e4accf" stroke="#231f20" stroke-miterlimit="10"/>
    <path d="M230.38,252.09c-.39.56-1.07,1.53-2.15,2.44-2.25,1.9-4.78,2.33-6.49,2.59-6.97,1.09-12.16-1.99-14.44-3.34-2.27-1.35-2.65-2.09-2.59-2.62.15-1.47,3.65-2.21,4.74-2.44.59-.12,3.13-.62,7.32.02,2.49.38,2.46.68,5.94,1.28,4.1.71,5.2.46,5.94.19,2.25-.83,3.18-2.68,3.55-2.42.39.27-.58,2.52-1.82,4.3Z" fill="#c7c8ca" stroke="#231f20" stroke-miterlimit="10"/>
    <path d="M199.7,250.93c.06.53-.32,1.27-2.59,2.62-2.28,1.35-7.47,4.43-14.44,3.35-1.71-.27-4.24-.7-6.49-2.6-1.08-.91-1.77-1.88-2.15-2.44-1.24-1.77-2.21-4.02-1.82-4.3.36-.26,1.3,1.59,3.55,2.42.74.28,1.84.52,5.94-.19,3.48-.59,3.45-.9,5.94-1.28,4.19-.64,6.73-.14,7.32-.02,1.09.23,4.59.97,4.74,2.44Z" fill="#c7c8ca" stroke="#231f20" stroke-miterlimit="10"/>
  </g>
</svg>