<?xml version="1.0" encoding="UTF-8"?>
<svg id="Layer_1" data-name="Layer 1" xmlns="http://www.w3.org/2000/svg" xmlns:xlink="http://www.w3.org/1999/xlink" viewBox="0 0 400.7 401.18">
  <defs>
    <clipPath id="clippath">
      <rect x="81.41" y="89.74" width="214.81" height="212.09" fill="none"/>
    </clipPath>
  </defs>
  <g>
    <rect x="74.49" y="61.37" width="40.68" height="8.87" fill="none"/>
    <path d="M82.21,66.34c-.06-1.13-.13-2.48-.12-3.49h-.04c-.28.95-.61,1.96-1.02,3.07l-1.43,3.92h-.79l-1.31-3.85c-.38-1.14-.71-2.18-.94-3.14h-.02c-.02,1.01-.08,2.36-.16,3.57l-.22,3.47h-1l.56-8.08h1.33l1.38,3.91c.34,1,.61,1.88.82,2.72h.04c.2-.82.49-1.7.85-2.72l1.44-3.91h1.33l.5,8.08h-1.02l-.2-3.55Z" fill="#231f20"/>
    <path d="M86.33,62.45c.01.36-.25.65-.67.65-.37,0-.64-.29-.64-.65s.28-.66.66-.66.65.29.65.66ZM85.15,69.89v-5.8h1.05v5.8h-1.05Z" fill="#231f20"/>
    <path d="M87.96,61.38h1.05v8.52h-1.05v-8.52Z" fill="#231f20"/>
    <path d="M91.38,67.18c.02,1.43.94,2.01,1.99,2.01.76,0,1.21-.13,1.61-.3l.18.76c-.37.17-1.01.36-1.93.36-1.79,0-2.85-1.18-2.85-2.93s1.03-3.13,2.72-3.13c1.89,0,2.4,1.67,2.4,2.73,0,.22-.02.38-.04.49h-4.08ZM94.48,66.42c.01-.67-.28-1.71-1.46-1.71-1.07,0-1.54.98-1.62,1.71h3.08Z" fill="#231f20"/>
    <path d="M96.81,65.66c0-.6-.01-1.09-.05-1.57h.94l.06.96h.02c.29-.55.96-1.09,1.92-1.09.8,0,2.05.48,2.05,2.47v3.47h-1.05v-3.35c0-.94-.35-1.71-1.34-1.71-.7,0-1.24.49-1.42,1.08-.05.13-.07.31-.07.49v3.49h-1.05v-4.23Z" fill="#231f20"/>
    <path d="M106.68,69.89l-.08-.73h-.04c-.32.46-.95.86-1.78.86-1.17,0-1.77-.83-1.77-1.67,0-1.4,1.25-2.17,3.49-2.16v-.12c0-.48-.13-1.34-1.32-1.34-.54,0-1.1.17-1.51.43l-.24-.7c.48-.31,1.17-.52,1.91-.52,1.78,0,2.21,1.21,2.21,2.37v2.17c0,.5.02,1,.1,1.39h-.96ZM106.52,66.93c-1.15-.02-2.46.18-2.46,1.31,0,.68.46,1.01,1,1.01.76,0,1.24-.48,1.4-.97.04-.11.06-.23.06-.34v-1.01Z" fill="#231f20"/>
  </g>
  <path d="M323.84,151.81c9.15,0,17.92-8.05,17.5-17.5s-7.69-17.5-17.5-17.5c-9.15,0-17.92,8.05-17.5,17.5s7.69,17.5,17.5,17.5h0Z" fill="#010101"/>
  <path d="M323.84,199.45c9.15,0,17.92-8.05,17.5-17.5s-7.69-17.5-17.5-17.5c-9.15,0-17.92,8.05-17.5,17.5s7.69,17.5,17.5,17.5h0Z" fill="#926f48"/>
  <g clip-path="url(#clippath)">
    <path d="M186.19,150.67c6.13-1.01,11.71-1.5,17.84-1.29,2.23.07,3.94.22,4.57.27,19.16,1.7,40.38,17.11,40.38,17.11,13.24,9.62,19.87,14.43,24.28,24.41,0,0,6.59,15.35,4.04,31.55-.03.21-.44,2.46-.57,3.07-.03.15-.06.29-.06.29s-.08.36-.17.76c-.16.67-.46,1.82-.46,1.85-.14.52-16.63,51.72-57.33,61.79-42.55,10.53-90.42-29.07-94.17-68.68-1.49-15.73,3.09-40.88,18.24-53.91,4.91-4.23,11.4-7.58,12.87-8.34,10.96-5.66,20.4-7.2,30.56-8.88Z" fill="#231f20"/>
    <path d="M174.36,204.42c-9.95.54-19.58,6.86-23.68,16.76-.55,1.32-.98,2.65-1.3,4-4.28-2.88-6.95-5.6-8.65-7.67-.14-.17-.29-.35-.45-.55,2.31-.99,4.8-2.36,7.25-4.25,10.66-8.23,13.31-20.7,14.02-26.31-.32,5.76,1.98,11.32,6.33,14.83,1.91,1.54,4.13,2.61,6.48,3.19Z" fill="#926f48" stroke="#231f20" stroke-miterlimit="10"/>
    <path d="M282.21,231.01c-.38-2.35-.8-4.99-2.72-6.68-1.01-.89-2.32-1.43-3.79-1.63-2.48-.35-5.43.27-8.22,1.82-1.5-.35-2.93-.8-4.28-1.34-1.73-.68-3.32-1.51-4.76-2.46.54,1.33.98,2.68,1.32,4.02.23.93.41,1.86.55,2.77.24,1.64,2.1,15.65-8.37,24.64-1.19,1.02-2.46,1.91-3.8,2.67,4.3,5.1,4.83,11.88,1.68,16.27-1.85,2.59-5.36,4.85-9.46,4.7-.95-.04-4.41-.3-6.87-2.86-3.26-3.39-3.54-9.53-.26-14.83-4.52-.32-8.99-1.75-12.84-4.22-10.72-6.87-15.53-21.02-10.47-33.22,2.75-6.63,7.97-11.65,14.11-14.41-2.53-4.11-3.15-8.99-2.07-11.79.18-.47.56-1.28.38-1.4-.84-.56-9.01,16.81-18.85,17.29-3,.15-7.56-1.21-13.46-9.16-2.89,2.12-6.18,3.34-9.48,3.66.65.14,1.32.29,1.96.49,11.01,3.17,17.2,13.57,18.56,22.69.19,1.22,1.26,9.37-2.58,17.16-.01.03-.03.06-.05.09.02-.02.03-.03.04-.05.57-.83,2.28-2.88,5.16-3.07.29-.02,3.68-.18,5.68,2.57,2.03,2.8.76,6.04.59,6.45-1.09,2.63-3.45,3.64-4.03,3.88-.6.24-3.7,1.5-6.26-.29-2.36-1.64-2.45-4.59-2.46-5.19-.04-1.12.21-2.08.5-2.83-1.23,2.08-2.84,4.1-4.96,5.92-4.42,3.79-9.95,5.76-15.56,6,.12.39,1.97,6.67-2.22,11.22-2.73,2.97-6.29,3.31-7,3.36-6.22.47-10.09-4.89-10.3-5.21,0-.01-.01-.01-.01-.02h-.01c-3.04-4.38-2.78-10.69.74-15.71-7.68-6.5-11.35-17.12-8.96-27.13-4.28-2.88-6.95-5.6-8.65-7.67-.14-.17-.29-.35-.45-.55-.9.39-1.76.72-2.59,1-.79-.19-5.48-1.31-9.57-1.41h-.01c-1.41-.03-2.76.05-3.85.35-.52.13-.98.31-1.36.54-.4.24-.77.52-.77.52-2.5,1.84-3.53,4.32-3.94,5.31-1.43,3.42-1.69,8.47.7,12.92.62,1.14,2.24,4.12,5.74,5.82,1.34.64,4.1,2.02,7.12.92.86-.32,1.58-.77,2.15-1.25.81-.67,1.33-1.39,1.62-1.83-.1,1.37-.13,2.88-.02,4.5h0c.1,1.45.3,2.98.65,4.57.17.78.83,3.65,2.48,7.16,0,0,1.21,2.56,2.9,5.03,7.74,11.33,22.61,19.68,22.61,19.68,15.36,8.63,29.7,10.32,35.93,10.76,4.84.33,14.45.92,26.3-2.33,5.64-1.54,16.39-4.62,26.26-13.75,10.28-9.52,11.94-18.5,12.08-19.7.15-1.24-.04-6.05-.1-7.14-.13-.95-.29-1.73-.41-2.25.63.58,2.03,1.71,4.12,2.13,1.92.38,3.44-.02,4.23-.24,2.2-.6,3.6-1.79,4.54-2.6,2.8-2.41,4-5.27,4.42-6.42.23-.64,1.39-3.93.7-8.24ZM213.06,263.29c0,.12-.01.24-.02.37-.02.39-.06.83-.14,1.3-.02.16-.05.33-.09.5-.02.1-.04.19-.06.28-.04.18-.08.35-.13.53-.19.72-.46,1.48-.85,2.25-.08.17-.17.34-.27.51-.16.3-.35.6-.56.89-.05.09-.11.17-.18.25-.12.18-.26.35-.41.52-.09.12-.19.23-.29.34-.72.79-3,3.22-6.7,3.55-.62.05-3.54.25-6.28-1.6-.11-.09-.85-.59-1.56-1.35-.03-.03-.06-.07-.1-.11-2.95-3.26-2.7-8.34-2.6-9.68.81.36,1.93.8,3.3,1.17.65.18,3.53.93,7.43.77,3.95-.15,7.2-1.16,9.47-2.11.02.25.07.83.04,1.62Z" fill="#926f48" stroke="#231f20" stroke-miterlimit="10"/>
    <path d="M161.77,184.36c-.04.5-.11,1.19-.22,2.04.03-.68.11-1.36.22-2.04Z" fill="none" stroke="#231f20" stroke-miterlimit="10"/>
    <path d="M197.67,246.73c.28-.49.54-.96.77-1.45-.18.26-.5.76-.77,1.45ZM168.32,217.11c-8.2,4.91-8.36,14.76-8.36,15.17,0,1.06.16,9.48,7.39,14.44.45.32,7.95,5.28,16.12,1.71,8.07-3.52,9.59-12.21,9.85-13.73.27-1.55,1.57-9.01-3.39-14.66-5.17-5.88-14.71-7.06-21.61-2.93Z" fill="none" stroke="#231f20" stroke-miterlimit="10"/>
    <path d="M201.07,228.03c-1.36-9.12-7.55-19.52-18.56-22.69-.64-.2-1.31-.35-1.96-.49h-.02c-2.08.22-4.18.07-6.16-.43h-.01c-9.95.54-19.58,6.86-23.68,16.76-.55,1.32-.98,2.65-1.3,4-2.39,10.01,1.28,20.63,8.96,27.13.89.76,1.83,1.46,2.82,2.09,4.74,3.04,10.4,4.5,15.98,4.27,5.61-.24,11.14-2.21,15.56-6,2.12-1.82,3.73-3.84,4.96-5.92,0-.01.01-.01.01-.02.27-.69.59-1.19.77-1.45.02-.03.04-.06.05-.09,3.84-7.79,2.77-15.94,2.58-17.16ZM167.82,206.8c2.75-3.26,11.03-1.73,12.06,1.41.31.94-.11,1.84-.21,2.07-1.28,2.81-6.15,2.64-6.69,2.62-.92-.03-5.11-.17-5.98-2.6-.43-1.19.06-2.61.82-3.5ZM193.32,234.7c-.26,1.52-1.78,10.21-9.85,13.73-8.17,3.57-15.67-1.39-16.12-1.71-7.23-4.96-7.39-13.38-7.39-14.44,0-.41.16-10.26,8.36-15.17,6.9-4.13,16.44-2.95,21.61,2.93,4.96,5.65,3.66,13.11,3.39,14.66Z" fill="#acdee1" stroke="#231f20" stroke-miterlimit="10"/>
    <path d="M248.12,240.18c-.49,1.27-2.19,5.54-6.8,8.38-.74.47-6.95,4.14-14.12,1.49-1.22-.45-5.5-2.22-8.16-6.86-3.57-6.25-1.34-12.73-.53-14.71.09-.22.17-.4.19-.44,2.12-4.81,6.31-7.15,7.15-7.61,1.3-.69,4.55-2.21,8.82-1.9.85.07,8.98.8,12.91,7.93,3.41,6.19,1.04,12.41.54,13.72Z" fill="none" stroke="#231f20" stroke-miterlimit="10"/>
    <path d="M250.61,209.61c-.72-.61-1.48-1.19-2.28-1.73,1.24-1.46,2.23-3.17,2.88-5.09-.93,2.9-.85,5.25-.6,6.82Z" fill="none" stroke="#231f20" stroke-miterlimit="10"/>
    <path d="M138.64,170.48c-1.79.12-17.6,1.02-21.12-7.51-2.53-6.11,2.78-13.38,3.68-14.58-8.02-4.11-10.66-14.24-6.16-21.34,4.28-6.77,13.86-8.92,21.02-4.22.39-6.45,3.71-12.22,8.86-14.62,7.47-3.48,18.24.39,22.95,10.29,6.78.43,12.5,5.22,14.07,11.72,1.5,6.19-1.06,12.75-6.41,16.38,5.16-2,9.93.77,10.58,3.9.63,3.04-3.66,6.39-4.56,7.08-5.54,4.24-10.7,3.19-18.23,4.29-13.64,1.99-13.28,7.84-24.69,8.61Z" fill="#2d2c2c"/>
    <path d="M266.33,177.73c3.73-1.22,6.95-4.21,8.43-7.77,2.87-6.9-1.66-13.95-2.26-14.86,8.38-3.32,11.98-13.15,8.18-20.65-3.61-7.15-12.94-10.22-20.52-6.22.24-6.46-2.52-12.52-7.41-15.41-7.1-4.18-18.19-1.36-23.83,8.03-6.79-.22-12.95,4-15.14,10.31-2.09,6.02-.17,12.79,4.8,16.92-4.94-2.49-9.96-.19-10.91,2.86-.82,2.63,1.93,5.89,3.86,7.49,4.8,3.98,10.78,3.28,15.16,3.43,20.08.69,27.14,19.97,39.63,15.86Z" fill="#2d2c2c"/>
    <line x1="124.26" y1="216.9" x2="124.26" y2="216.89" fill="none" stroke="#231f20" stroke-miterlimit="10"/>
    <path d="M133.9,241.68c.51.9,1.05,1.79,1.6,2.67h0" fill="none" stroke="#231f20" stroke-miterlimit="10"/>
    <path d="M193.32,234.7c-.26,1.52-1.78,10.21-9.85,13.73-8.17,3.57-15.67-1.39-16.12-1.71-7.23-4.96-7.39-13.38-7.39-14.44,0-.41.16-10.26,8.36-15.17,6.9-4.13,16.44-2.95,21.61,2.93,4.96,5.65,3.66,13.11,3.39,14.66Z" fill="none" stroke="#231f20" stroke-miterlimit="10"/>
    <path d="M179.67,210.28c-1.28,2.81-6.15,2.64-6.69,2.62-.92-.03-5.11-.17-5.98-2.6-.43-1.19.06-2.61.82-3.5,2.75-3.26,11.03-1.73,12.06,1.41.31.94-.11,1.84-.21,2.07Z" fill="#010101" stroke="#231f20" stroke-miterlimit="10"/>
    <path d="M239.76,213.1c.05.71-.12,1.19-.28,1.48-1.18,2.25-5.67,1.97-6.23,1.93-.55-.04-5.39-.41-6.37-3.35-.07-.22-.39-1.16.03-2.08.18-.39.42-.65.6-.81.32.26.65.51,1,.74.14.1.29.19.45.29.19.12.4.25.63.37.22.12.46.25.7.36.25.12.51.24.78.35.28.11.56.22.86.32.29.1.6.2.92.28.3.08.61.15.91.21.31.06.62.11.92.15,1.77.23,3.28.09,4.34-.1.28-.04.53-.09.74-.14Z" fill="#231f20" stroke="#231f20" stroke-miterlimit="10"/>
    <path d="M244.23,226.47c-.84.07-1.54.74-1.79,1.49-.07.2-.33.98.11,1.61.41.6,1.19.71,1.73.6.7-.15,1.09-.69,1.23-.89.13-.18.44-.64.43-1.28,0-.19-.02-.7-.39-1.09-.48-.51-1.18-.45-1.32-.44Z" fill="#fff"/>
    <path d="M242.35,224.47c-.43.04-.78.38-.91.76-.03.1-.17.5.06.82.21.31.61.36.88.3.36-.07.56-.35.63-.45.07-.09.23-.33.22-.65,0-.1,0-.35-.2-.56-.24-.26-.6-.23-.67-.22Z" fill="#fff"/>
    <path d="M187.38,221.43c.35.78.11,1.73-.44,2.33-.14.16-.7.78-1.49.7-.74-.07-1.22-.71-1.39-1.24-.22-.7.07-1.31.18-1.53.1-.21.35-.71.93-1.01.17-.09.63-.33,1.16-.19.69.17.98.82,1.04.95Z" fill="#fff"/>
    <path d="M184.4,219.72c.25.55.08,1.21-.31,1.63-.1.11-.49.54-1.04.49-.52-.05-.86-.5-.97-.87-.15-.49.05-.92.13-1.07.07-.14.24-.5.65-.71.12-.06.44-.23.81-.14.48.12.69.58.73.67Z" fill="#fff"/>
    <path d="M248.33,207.88c-2.4,2.85-5.73,4.75-9.31,5.36-1.42.24-2.89.28-4.34.1-.31-.04-.61-.09-.92-.15-.3-.06-.61-.13-.91-.21-.32-.08-.63-.18-.92-.28-.3-.1-.58-.21-.86-.32-.27-.11-.53-.23-.78-.35-.24-.11-.48-.24-.7-.36-.23-.12-.44-.25-.63-.37-.16-.1-.31-.19-.45-.29-.35-.23-.68-.48-1-.74-1.42-1.15-2.58-2.54-3.48-4.02,5.54-2.49,11.83-3.13,17.71-1.44,2.43.7,4.63,1.76,6.59,3.07Z" fill="none" stroke="#231f20" stroke-miterlimit="10"/>
    <path d="M258.44,220.72c-4.17-2.76-7.02-6.56-7.79-10.83-.02-.09-.03-.18-.04-.28,3.57,3.05,6.18,7,7.83,11.11Z" fill="none" stroke="#231f20" stroke-miterlimit="10"/>
    <path d="M201.44,231.04c1.04-.38,2.81-.84,4.87-.42.51.1.97.24,1.38.4" fill="none" stroke="#231f20" stroke-miterlimit="10"/>
    <path d="M128.12,216.55c2.64-.81,4.58-1.64,5.89-2.27.57-.27.89-.44,1.39-.49,2-.2,3.73,1.76,4.88,3.17" fill="none" stroke="#231f20" stroke-miterlimit="10"/>
    <path d="M278.08,223.4c-.24-.62-.55-1.07-.79-1.37-.88-1.1-1.97-1.56-2.51-1.74-.18-.06-.68-.22-1.49-.27-1.69-.12-3.05.34-3.66.55-1.83.64-5.44,2.09-10.06,4.25" fill="none" stroke="#231f20" stroke-miterlimit="10"/>
    <path d="M209.91,251.18c-1.09,2.63-3.45,3.64-4.03,3.88-.6.24-3.7,1.5-6.26-.29-2.36-1.64-2.45-4.59-2.46-5.19-.04-1.12.21-2.08.5-2.83,0-.01.01-.01.01-.02.28-.49.54-.96.77-1.45.02-.02.03-.03.04-.05.57-.83,2.28-2.88,5.16-3.07.29-.02,3.68-.18,5.68,2.57,2.03,2.8.76,6.04.59,6.45Z" fill="#73502e" stroke="#231f20" stroke-miterlimit="10"/>
    <path d="M198.44,245.28c-.23.49-.49.96-.77,1.45.27-.69.59-1.19.77-1.45Z" fill="none" stroke="#231f20" stroke-miterlimit="10"/>
    <path d="M210.35,270.69c-.09.12-.19.23-.29.34-.72.79-3,3.22-6.7,3.55-.62.05-3.54.25-6.28-1.6-.11-.09-.85-.59-1.56-1.35.29-.42,2.67-3.76,7.1-4.08,4.54-.34,7.41,2.78,7.73,3.14Z" fill="#f5a0c5" stroke="#231f20" stroke-miterlimit="10"/>
    <path d="M213.06,263.29c0,.12-.01.24-.02.37-.02.39-.06.83-.14,1.3-.02.16-.05.33-.09.5-.02.1-.04.19-.06.28-.04.18-.08.35-.13.53-.19.72-.46,1.48-.85,2.25-.08.17-.17.34-.27.51-.16.3-.35.6-.56.89-.05.09-.11.17-.18.25-.12.18-.26.35-.41.52-.32-.36-3.19-3.48-7.73-3.14-4.43.32-6.81,3.66-7.1,4.08-.03-.03-.06-.07-.1-.11-2.95-3.26-2.7-8.34-2.6-9.68.81.36,1.93.8,3.3,1.17.65.18,3.53.93,7.43.77,3.95-.15,7.2-1.16,9.47-2.11.02.25.07.83.04,1.62Z" fill="#010101" stroke="#231f20" stroke-miterlimit="10"/>
    <path d="M174.92,269.89c-2.73,2.97-6.29,3.31-7,3.36-6.22.47-10.09-4.89-10.3-5.21,0-.01-.01-.01-.01-.02h-.01c-3.04-4.38-2.78-10.69.74-15.71.89.76,1.83,1.46,2.82,2.09,4.74,3.04,10.4,4.5,15.98,4.27.12.39,1.97,6.67-2.22,11.22Z" fill="#8c2849" stroke="#231f20" stroke-miterlimit="10"/>
    <path d="M177.14,258.67h0" fill="none" stroke="#231f20" stroke-miterlimit="10"/>
    <path d="M260.31,227.51c-.14-.91-.32-1.84-.55-2.77-.34-1.34-.78-2.69-1.32-4.02-4.17-2.76-7.02-6.56-7.79-10.83-.02-.09-.03-.18-.04-.28-.72-.61-1.48-1.19-2.28-1.73-2.4,2.85-5.73,4.75-9.31,5.36.28-.04.53-.09.74-.14.05.71-.12,1.19-.28,1.48-1.18,2.25-5.67,1.97-6.23,1.93-.55-.04-5.39-.41-6.37-3.35-.07-.22-.39-1.16.03-2.08.18-.39.42-.65.6-.81-1.42-1.15-2.58-2.54-3.48-4.02-6.14,2.76-11.36,7.78-14.11,14.41-5.06,12.2-.25,26.35,10.47,33.22,3.85,2.47,8.32,3.9,12.84,4.22,5.15.36,10.38-.7,14.91-3.28,1.34-.76,2.61-1.65,3.8-2.67,10.47-8.99,8.61-23,8.37-24.64ZM248.12,240.18c-.49,1.27-2.19,5.54-6.8,8.38-.74.47-6.95,4.14-14.12,1.49-1.22-.45-5.5-2.22-8.16-6.86-3.57-6.25-1.34-12.73-.53-14.71.09-.22.17-.4.19-.44,2.12-4.81,6.31-7.15,7.15-7.61,1.3-.69,4.55-2.21,8.82-1.9.85.07,8.98.8,12.91,7.93,3.41,6.19,1.04,12.41.54,13.72Z" fill="#acdee1" stroke="#231f20" stroke-miterlimit="10"/>
    <path d="M249.82,271.09c-1.85,2.59-5.36,4.85-9.46,4.7-.95-.04-4.41-.3-6.87-2.86-3.26-3.39-3.54-9.53-.26-14.83,5.15.36,10.38-.7,14.91-3.28,4.3,5.1,4.83,11.88,1.68,16.27Z" fill="#8c2849" stroke="#231f20" stroke-miterlimit="10"/>
    <path d="M131.92,224.59c-.19,2.98-.38,5.95-.57,8.93" fill="none" stroke="#231f20" stroke-miterlimit="10"/>
    <path d="M126.49,229.71l5.17-.28" fill="none" stroke="#231f20" stroke-miterlimit="10"/>
    <path d="M266.59,229.9c.18,2.98.36,5.95.54,8.93" fill="none" stroke="#231f20" stroke-miterlimit="10"/>
    <path d="M272.01,235.05l-5.17-.3" fill="none" stroke="#231f20" stroke-miterlimit="10"/>
    <path d="M239.25,190.92c-3.9-8.09-4.52-15.06-1.61-17.3,1.25-.96,3.31-1.17,4.97-.54,2.42.93,4.05,3.71,4.06,7.07,2.71-1.82,5.91-1.91,7.94-.35,1.95,1.5,2.54,4.31,1.94,6.18-1.22,3.83-8.12,6-17.29,4.94Z" fill="none" stroke="#231f20" stroke-miterlimit="10"/>
    <path d="M146.37,173.76c9.99-7,21.44-11.8,33.62-13.12,1.34-.15,2.5-1.05,2.5-2.5,0-1.24-1.15-2.65-2.5-2.5-13.08,1.41-25.39,6.27-36.15,13.8-1.1.77-1.62,2.19-.9,3.42.64,1.09,2.31,1.68,3.42.9h0Z" fill="#74479c"/>
    <path d="M219.19,162.73c12.36,1.76,24.06,6.23,34.07,13.76,1.08.81,2.79.17,3.42-.9.75-1.28.19-2.61-.9-3.42-10.3-7.74-22.55-12.45-35.26-14.26-1.34-.19-2.69.33-3.08,1.75-.32,1.17.4,2.88,1.75,3.08h0Z" fill="#9e3f98"/>
  </g>
</svg>