<?xml version="1.0" encoding="UTF-8"?>
<svg id="Layer_1" data-name="Layer 1" xmlns="http://www.w3.org/2000/svg" xmlns:xlink="http://www.w3.org/1999/xlink" viewBox="0 0 400.7 401.18">
  <defs>
    <clipPath id="clippath">
      <rect x="84.78" y="145.17" width="220.71" height="159.74" fill="none"/>
    </clipPath>
  </defs>
  <g>
    <rect x="176.23" y="67.53" width="41.03" height="13.06" fill="none"/>
    <path d="M178.8,67.96h1.04v5.41c0,2.15-1.06,2.81-2.45,2.81-.38,0-.85-.08-1.12-.19l.16-.85c.22.08.53.16.88.16.94,0,1.49-.42,1.49-2v-5.33Z" fill="#231f20"/>
    <path d="M186.4,74.47c0,.6.01,1.13.05,1.58h-.94l-.06-.95h-.02c-.28.47-.89,1.08-1.92,1.08-.91,0-2-.5-2-2.54v-3.39h1.05v3.21c0,1.1.34,1.85,1.29,1.85.71,0,1.2-.49,1.39-.96.06-.16.1-.35.1-.54v-3.56h1.05v4.22Z" fill="#231f20"/>
    <path d="M188.16,67.53h1.05v8.52h-1.05v-8.52Z" fill="#231f20"/>
    <path d="M192.17,68.61c.01.36-.25.65-.67.65-.37,0-.63-.29-.63-.65s.28-.66.66-.66.65.29.65.66ZM190.99,76.05v-5.8h1.05v5.8h-1.05Z" fill="#231f20"/>
    <path d="M197.01,76.05l-.08-.73h-.04c-.32.46-.95.86-1.78.86-1.17,0-1.77-.83-1.77-1.67,0-1.4,1.25-2.17,3.49-2.16v-.12c0-.48-.13-1.34-1.32-1.34-.54,0-1.1.17-1.51.43l-.24-.7c.48-.31,1.17-.52,1.91-.52,1.78,0,2.21,1.21,2.21,2.37v2.17c0,.5.02,1,.1,1.39h-.96ZM196.86,73.09c-1.15-.02-2.46.18-2.46,1.31,0,.68.46,1.01,1,1.01.76,0,1.23-.48,1.4-.97.04-.11.06-.23.06-.34v-1.01Z" fill="#231f20"/>
    <path d="M199.58,71.81c0-.6-.01-1.09-.05-1.57h.94l.06.96h.02c.29-.55.96-1.09,1.92-1.09.8,0,2.05.48,2.05,2.47v3.47h-1.05v-3.35c0-.94-.35-1.71-1.34-1.71-.7,0-1.23.49-1.41,1.08-.05.13-.07.31-.07.49v3.49h-1.05v-4.23Z" fill="#231f20"/>
    <path d="M211.5,73.1c0,2.15-1.49,3.08-2.89,3.08-1.57,0-2.78-1.15-2.78-2.99,0-1.94,1.27-3.08,2.88-3.08s2.79,1.21,2.79,2.99ZM206.89,73.16c0,1.27.73,2.23,1.76,2.23s1.76-.95,1.76-2.25c0-.98-.49-2.23-1.74-2.23s-1.79,1.15-1.79,2.25Z" fill="#231f20"/>
  </g>
  <path d="M339.6,79.61c-.87,4.43.84,8.6,4.87,10.83,4.28,2.36,9.52.87,12.24-3.04,2.16-3.1,2.45-7.54.56-10.86-2.35-4.13-7.66-6.21-12-3.86-4.08,2.21-5.96,6.95-4.45,11.35s5.79,7.21,10.35,7.15c9.29-.11,14.31-12.09,7.19-18.41-3.17-2.81-7.85-3.81-11.84-2.25-4.43,1.72-7.34,5.47-8.62,9.98-.96,3.37,1.18,7.07,4.54,8s7.03-1.15,8-4.54c.3-1.05-.15.03.14-.55.08-.15.76-1.39.26-.52.17-.3.7-.64.14-.19l-.41.11c.63-.16.7-.19.21-.1-.58-.07-1.2-.41-.41.06-.37-.22-.68-.3-.98-.64-.59-.68-.75-1.88-.34-2.69.55-1.07,1.86-1.53,2.89-1.02.57.27,1.08.96,1.2,1.53l-.93,3.53-5.75.08c-.6-.55-.89-1.19-.88-1.91-.02-.45-.03-.48-.02-.11,0,.58.12-.89.25-1.11.73-1.29,2.79-2.04,4.2-1.7,1.79.43,2.45,2.74,2.14,4.33.67-3.44-.98-7.02-4.54-8-3.19-.88-7.32,1.08-8,4.54h0Z" fill="#feda00"/>
  <path d="M348.57,105.86c-1.5.59-2.8,1.65-3.7,2.99-.2.29-.38.63-.33.97.04.29.23.53.43.74,1.89,2.04,5.01,2.84,7.65,1.97s4.67-3.37,4.98-6.14c.04-.36.05-.72-.06-1.07-.26-.82-1.12-1.28-1.94-1.5-2.23-.58-4.8.2-6.18,2.05s-1.32,4.68.27,6.35,4.59,1.78,6.18.12,1.22-4.82-.8-5.92-4.99.48-5.04,2.79c.63.97,1.97,1.56,3.01,1.04s1.23-2.3.18-2.8c-.92-.45-1.99.27-2.64,1.06-.79.96-1.37,2.39-.63,3.39.93,1.27,3.17.49,3.75-.98s.08-3.11-.44-4.6c-.57-1.65-1.19-3.35-2.38-4.62s-3.12-2.03-4.73-1.35c-.7.3-1.28.84-1.79,1.41-1.82,2.03-3.05,4.69-2.9,7.41.26,4.67,5.16,8.5,9.76,7.65s7.82-6.13,6.5-10.62c-.47-1.59-1.4-3.01-2.5-4.26-2.16-2.44-5.54-4.35-8.6-3.25-3.42,1.22-4.67,5.43-4.79,9.06-.06,1.76.08,3.65,1.16,5.05.79,1.01,1.98,1.62,3.16,2.12,1.95.82,4.42,1.35,5.99-.06,1.32-1.18,1.28-3.55-.09-4.69s-3.7-.75-4.62.76c1.51-.01,2.7-1.46,2.96-2.95s-.17-3-.6-4.45c-.41.17-.82.35-1.23.52.29-1.36.08-2.81-.58-4.03l.58,5.81Z" fill="#fdd5b7"/>
  <path d="M346.54,147.51c.13.01.26.02.38,0,.34-.02.67-.07,1-.14.13-.03.25-.06.37-.11.31-.11.62-.24.91-.39.11-.06.21-.12.31-.19.26-.19.53-.38.77-.61.16-.16.3-.34.44-.52s.29-.37.4-.58l.25-.6.09-.66-.09-.66c-.08-.33-.23-.61-.45-.85-.11-.19-.26-.34-.45-.45-.16-.15-.34-.26-.55-.32-.19-.11-.41-.17-.63-.17-.33-.07-.66-.06-1,.04-1.1.32-2.03,1.02-2.64,1.99-.37.6-.5,1.21-.57,1.9,0,.06,0,.12,0,.19.01.27.06.55.1.81.06.32.23.66.35.93.1.21.24.37.38.55.1.13.19.26.3.38.19.19.42.34.63.5.26.19.58.3.87.41.06.02.11.04.17.05.03,0,.06.01.1.02.24.04.5.08.74.1.57.03,1.3-.16,1.78-.48.21-.14.42-.3.61-.47.03-.03.06-.06.09-.09.17-.19.33-.4.47-.61.03-.04.06-.09.08-.14.29-.56.51-1.21.46-1.85s-.12-.92-.4-1.5c-.14-.28-.34-.55-.58-.76-.46-.43-1.12-.76-1.77-.73l-.66.09c-.42.12-.79.33-1.1.64-.37.31-.73.62-1.1.93-.24.23-.42.49-.52.8-.16.3-.23.62-.22.96-.01.34.06.67.22.96.1.31.27.58.52.8.48.44,1.1.76,1.77.73l.66-.09c.42-.12.79-.33,1.1-.64.37-.31.73-.62,1.1-.93h-3.54s.06.06.09.09l-.39-.51c.04.05.07.1.1.16l-.25-.6c.03.07.05.13.06.21l-.09-.66c.01.08,0,.17,0,.25l.09-.66c-.01.1-.04.19-.07.28l.25-.6c-.04.1-.1.19-.16.28l.39-.51c-.06.07-.12.13-.18.18l.51-.39c-.06.04-.12.08-.19.11l.6-.25c-.07.03-.14.05-.22.06l.66-.09c-.08,0-.16,0-.24,0l.66.09c-.09-.01-.18-.04-.27-.07l.6.25c-.1-.04-.19-.1-.28-.16l.51.39c-.09-.07-.16-.14-.23-.23l.39.51c-.08-.1-.14-.2-.19-.32l.25.6c-.05-.11-.08-.23-.1-.36l.09.66c-.01-.11-.01-.22,0-.33l-.09.66c.02-.12.05-.24.1-.36l-.25.6c.06-.14.14-.27.23-.39l-.39.51c.1-.12.21-.23.33-.33l-.51.39c.15-.11.3-.2.47-.28l-.6.25c.08-.03.16-.06.24-.08l-2.82-3.67c-.06.11-.13.22-.21.32l.39-.51c-.13.17-.28.32-.45.45l.51-.39c-.18.14-.38.25-.59.34l.6-.25c-.2.08-.4.14-.62.17l.66-.09c-.18.02-.37.03-.55,0-.34-.01-.67.06-.96.22-.31.1-.58.27-.8.52-.24.23-.42.49-.52.8-.16.3-.23.62-.22.96.03.65.24,1.32.73,1.77l.51.39c.39.23.81.34,1.26.34h0Z" fill="#d9ad6c"/>
  <path d="M350.4,127.3c-2.17,1.08-4.34,2.17-6.51,3.25-.89.44-1.32,1.57-1.19,2.49.14,1.01.83,1.76,1.79,2.08,4.53,1.52,9.18-3.07,8.96-7.54-.07-1.53-.63-2.84-1.63-3.99-.71-.81-2.14-.94-3.03-.39-1.87,1.16-3.43,2.72-4.6,4.58s-1.83,3.99-2.07,6.19c-.07.6.33,1.36.73,1.77.43.43,1.15.76,1.77.73s1.32-.24,1.77-.73c.48-.52.66-1.07.73-1.77,0-.09.02-.17.03-.26l-.09.66c.11-.82.3-1.62.58-2.4.04-.1.08-.2.12-.3.03-.09.16-.39,0,0-.17.41-.01.03.03-.06.05-.1.09-.2.14-.29.18-.37.39-.73.61-1.07.11-.16.21-.33.33-.49.03-.04.15-.26.19-.26-.03,0-.38.48-.15.2.26-.32.53-.63.82-.92s.6-.56.92-.83-.39.29-.15.11c.09-.06.17-.13.26-.19.18-.12.36-.24.54-.36l-3.03-.39c.06.07.29.36,0-.02s-.09-.11-.03-.02c.07.11.13.32.22.41,0,0-.24-.63-.15-.34.02.07.05.15.07.22.05.16.08.33.11.49l-.09-.66c.05.37.05.74,0,1.11l.09-.66c-.03.25-.08.5-.15.74-.04.12-.08.25-.12.37-.02.05-.06.12-.07.18,0,0,.28-.61.14-.33-.12.23-.24.46-.38.68-.06.09-.2.22-.22.32,0-.01.42-.51.21-.27-.05.06-.1.12-.16.19-.17.19-.36.37-.55.54-.35.31.51-.35.13-.1-.11.07-.21.14-.32.2s-.22.12-.33.18c-.41.21.6-.21.17-.07-.25.08-.5.14-.76.18l.66-.09c-.31.04-.62.03-.93,0l.66.09c-.23-.04-.44-.09-.66-.16l.6,4.57c2.17-1.08,4.34-2.17,6.51-3.25,1.17-.59,1.6-2.34.9-3.42-.77-1.2-2.17-1.52-3.42-.9h0Z" fill="#f59bb7"/>
  <g clip-path="url(#clippath)">
    <path d="M169.87,203.1c-2.57-.21-5.2.37-6.88,1.71h-.01c-1.36-.11-3.05-.56-4.17-1.92-.69-.82-1.07-1.87-1.17-3.42-.42-6.15,3.97-14.05,7.11-13.6,1.88.28,2.89,3.46,3.78,6.3,1.69,5.32.66,8.07,1.34,10.93Z" fill="#fdd5b7" stroke="#231f20" stroke-miterlimit="10"/>
    <path d="M186.85,239.05c-.28.77-2.8,7.31-9.76,9.96-7.35,2.8-15.99-.13-20.59-6.35-5.36-7.25-4.47-18,1.61-23.63,5.02-4.63,11.79-4.15,13-4.04,6.14.55,10.01,4.13,11.14,5.27,4.28,4.29,7.21,11.65,4.6,18.79Z" fill="none" stroke="#231f20" stroke-miterlimit="10"/>
    <path d="M199.45,272.03h.03s.05-.02.08-.02c.24-.06.49-.12.75-.19.3-.09.61-.19.92-.3,5.06-1.82,9.11-6.55,8.29-7.99-.77-1.34-4.98,1.64-12.81,1.54-7.76-.09-12.49-3.12-13.48-1.52-.8,1.29,1.68,4.14,2.7,5.16.88.88,1.85,1.55,2.82,2.05.07.04.15.08.23.12.46.23.92.42,1.37.58.12.05.24.09.37.13l.18.06c.25.08.5.15.74.21.31.08.6.14.88.2.22.04.43.08.63.11.07.01.14.02.2.03h.04" fill="none" stroke="#231f20" stroke-miterlimit="10"/>
    <path d="M241.57,237.36c-.34,1.78-1.84,8.19-8.03,12.21-1.24.8-7.45,4.62-14.88,2.22-.94-.3-6.5-2.18-9.55-7.85-3.63-6.76-1.86-15.48,3.22-20.78,4.72-4.92,12.26-6.83,18.52-5.25.03,1.45.31,2.39.78,2.51.45.12.65-.51,2.03-1.46.02,0,.05-.03.07-.04,1.39.64,2.67,1.49,3.78,2.56,5.89,5.68,4.28,14.74,4.06,15.88Z" fill="none" stroke="#231f20" stroke-miterlimit="10"/>
    <path d="M260.06,201.83c6.76-5.06,12.35-11.67,16.23-19.18-6.03.62-12.05,1.24-18.07,1.86,5.21-2.99,8.26-9.35,7.33-15.28-4.77.98-9.7,1.16-14.53.52-1.46-4.21-.47-9.17,2.49-12.5-4.99-.44-10.13,1.19-13.97,4.41.68-2.88.06-6.04-1.65-8.46-3.28,2.71-7.14,4.71-11.25,5.84-.67.19-1.44.34-2.03-.04-.52-.34-.73-1-.83-1.61-.59-3.65,1.79-7.56,5.31-8.71-6.25-.15-12.56-.28-18.69.98-6.12,1.26-12.12,4.06-16.11,8.88-1.07-3.67-3.34-6.98-6.38-9.3-.83,3.64-3.34,6.85-6.67,8.53-2.91-2.85-4.88-6.64-5.55-10.66-8.38,5.13-14.9,13.22-18.14,22.49-3.35-2.43-6.95-4.5-10.72-6.19,3.32,4.25,2.02,11.3-2.6,14.09-1.99-1.77-3.02-4.55-2.66-7.19-6.8,5.93-11.12,14.61-11.76,23.61-1.22-2.56-2.43-5.12-3.65-7.69-.68,4.46-1.34,10.58-1.32,17.86,0,1.32.05,11.59,1.64,19.24.36-.13.74-.24,1.13-.32,4.5-.95,8.29,1.73,9.18,2.4-.16-3.25.24-5.9.71-7.84.81-3.39,2.39-7.04,2.9-6.91.19.05.04.56.26,1.22.63,1.92,3.41,2.24,5.34,3.18,1.52.76,3.4,2.34,4.82,6.05,1.14-2.5,1.68-4.59,1.57-6.23-.06-.99-.37-1.82-.91-2.48-.86-1.04-2.77-3.51-3.27-6.52-.19-1.26-.15-3.1,1.06-5.54.07.76.52,4.62,3.83,7.17.53.41,2.61,1.92,5.59,2.01.63.02,1.52.04,2.45-.16-.13-.95.05-2.06.49-2.94.31-.62.77-1.16,1.35-1.61-1.36-.11-3.05-.56-4.17-1.92-.69-.82-1.07-1.87-1.17-3.42-.42-6.15,3.97-14.05,7.11-13.6,1.88.28,2.89,3.46,3.78,6.3,1.69,5.32.66,8.07,1.34,10.93,1.43.11,2.85.46,4.06,1.07.21.11,3.53,1.81,3.24,3.52-.14.77-.97,1.38-1.91,1.74,2.25,1.3,5.37,2.54,9.69,3.57-2.07-1.97-3.05-3.9-3.55-5.41-2.49-7.55,2.66-17.52,12.87-24.91.29,1.27.59,3.18.36,5.45-.39,3.86-1.92,5.29-2.09,7.88-.12,2.01.58,4.9,4.41,8.59.33-1.39,1.05-3.63,2.8-5.83,3.15-3.99,7.43-5.09,8.83-5.38-.56,1.79-1.61,4.54-3.57,7.49-3.91,5.91-7.62,6.83-9.59,10.89-1.24,2.57-2.03,6.83.97,14.02,1.46-1.98,3.94-4.74,7.72-6.55,4.97-2.36,7.58-.89,12.6-1.98,11.32-2.44,18.16-14.25,18.66-13.8.15.13-.67.99-1.28,2.12-2.36,4.41-3.3,9.4-3.24,12.33.03,1.45.31,2.39.78,2.51.45.12.65-.51,2.03-1.46.02,0,.05-.03.07-.04,2.4-1.64,4.43-1.53,5.98-2.04,1.81-.6,4.03-2.39,5.77-7.63,1.43,1.29,3.17,3.14,4.79,5.6,1.9,2.88,2.98,5.6,3.61,7.63.74-.8,3.69-3.88,8.22-4.09h.11v-.02c1.23-1.45,2.9-3.77,4.11-6.97,1.49-3.98,1.56-7.49,1.45-9.55-2.57-.01-5.14-.01-7.71-.02ZM224.65,212.7c-.46.44-1.05.32-3.29.22,0,0-1.48-.07-3.78-.08-3.84-.02-4.89.57-5.61-.22-.68-.74-.52-2.09-.14-2.94,1.1-2.44,4.95-2.6,6.38-2.66,1.68-.07,4.76-.2,6.18,1.83.84,1.19,1.06,3.08.26,3.85Z" fill="#fff37c" stroke="#231f20" stroke-miterlimit="10"/>
    <path d="M273.25,225.17c-.36-.61-4.28-7.02-11.04-6.78h-.11c-4.53.21-7.48,3.29-8.22,4.09-.63-2.03-1.71-4.75-3.61-7.63-1.62-2.46-3.36-4.31-4.79-5.6-1.74,5.24-3.96,7.03-5.77,7.63-1.55.51-3.58.4-5.98,2.04,1.39.64,2.67,1.49,3.78,2.56,5.89,5.68,4.28,14.74,4.06,15.88-.34,1.78-1.84,8.19-8.03,12.21-1.24.8-7.45,4.62-14.88,2.22-.94-.3-6.5-2.18-9.55-7.85-3.63-6.76-1.86-15.48,3.22-20.78,4.72-4.92,12.26-6.83,18.52-5.25-.06-2.93.88-7.92,3.24-12.33.61-1.13,1.43-1.99,1.28-2.12-.5-.45-7.34,11.36-18.66,13.8-5.02,1.09-7.63-.38-12.6,1.98-3.78,1.81-6.26,4.57-7.72,6.55-3-7.19-2.21-11.45-.97-14.02,1.97-4.06,5.68-4.98,9.59-10.89,1.96-2.95,3.01-5.7,3.57-7.49-1.4.29-5.68,1.39-8.83,5.38-1.75,2.2-2.47,4.44-2.8,5.83-3.83-3.69-4.53-6.58-4.41-8.59.17-2.59,1.7-4.02,2.09-7.88.23-2.27-.07-4.18-.36-5.45-10.21,7.39-15.36,17.36-12.87,24.91.5,1.51,1.48,3.44,3.55,5.41-4.32-1.03-7.44-2.27-9.69-3.57h0c-.43.17-.89.28-1.3.34-1.54.21-1.9-.53-3.57-.39-1.38.11-1.53.65-3.45,1.29-1.61.53-3.84,1.28-4.99.33-.44-.37-.7-.96-.8-1.64-.93.2-1.82.18-2.45.16-2.98-.09-5.06-1.6-5.59-2.01-3.31-2.55-3.76-6.41-3.83-7.17-1.21,2.44-1.25,4.28-1.06,5.54.5,3.01,2.41,5.48,3.27,6.52.54.66.85,1.49.91,2.48.11,1.64-.43,3.73-1.57,6.23-1.42-3.71-3.3-5.29-4.82-6.05-1.93-.94-4.71-1.26-5.34-3.18-.22-.66-.07-1.17-.26-1.22-.51-.13-2.09,3.52-2.9,6.91-.47,1.94-.87,4.59-.71,7.84-.89-.67-4.68-3.35-9.18-2.4-.39.08-.77.19-1.13.32-3.86,1.34-5.86,4.97-7.05,7.12-4.11,7.47-3.68,17.93,1.82,24.64,1.18,1.44,4.89,5.96,9.74,5.56,3.1-.27,5.14-2.41,5.31-2.6,2.42-2.63,2.19-5.91,2.15-6.47,2.16,5.03,9.3,20.11,23.62,26.97,2.75,1.32,9.23,3.99,17.5,5.2,2.24.33,3.38.37,12.46,1.01,13.86.99,13.63,1.06,15.06,1.11,10.27.33,25.18-3.34,35.7-14.27,2.89-3.01,7.93-9.13,10.75-19.1,2.29-.35,5.6-1.09,9.22-2.86,2.34-1.15,5.42-2.66,7.85-5.55,3.67-4.34,6.43-12.47,2.64-18.92ZM191.25,244.18c1.53-1.84,4.43-3.06,6.98-1.86,1.84.86,3.28,2.87,3.14,5.08-.21,3.47-4.16,4.8-4.47,4.9-1.63.52-4.76.8-6.38-1.35-1.57-2.09-.67-5.09.73-6.77ZM162.87,258.05c-.78,1.99-2.66,2.77-3.34,3.06-.43.18-3.82,1.6-6.4-.52-2.41-1.98-1.92-5.27-1.89-5.42.45-2.66,2.76-4.93,5.53-5.08,2.89-.15,4.72,2.08,4.96,2.38s2.2,2.85,1.14,5.58ZM177.09,249.01c-7.35,2.8-15.99-.13-20.59-6.35-5.36-7.25-4.47-18,1.61-23.63,5.02-4.63,11.79-4.15,13-4.04,6.14.55,10.01,4.13,11.14,5.27,4.28,4.29,7.21,11.65,4.6,18.79-.28.77-2.8,7.31-9.76,9.96ZM201.23,271.52c-.31.11-.62.21-.92.3-.26.07-.51.13-.75.19-.03,0-.06,0-.08.02h-.03c-.57.13-1.09.2-1.57.25-.15.02-.29.03-.43.04-.16,0-.31.02-.45.03-.14.01-.26.01-.38.01-.24.01-.45.01-.62.01-.37,0-1-.01-1.78-.08-.13-.01-.26-.02-.4-.04-.12-.01-.23-.02-.35-.04-.03,0-.05,0-.08,0h-.04c-.06-.01-.13-.02-.2-.03-.2-.03-.41-.07-.63-.11-.28-.06-.57-.12-.88-.2-.24-.06-.49-.13-.74-.21-.06-.02-.12-.04-.18-.06-.13-.04-.25-.08-.37-.13-.45-.16-.91-.35-1.37-.58-.08-.04-.16-.08-.23-.12-.97-.5-1.94-1.17-2.82-2.05-1.02-1.02-3.5-3.87-2.7-5.16.99-1.6,5.72,1.43,13.48,1.52,7.83.1,12.04-2.88,12.81-1.54.82,1.44-3.23,6.17-8.29,7.99ZM239.98,265.94c-2.27,2.44-5.82,1.48-6.27,1.36-.72-.19-2.68-.72-3.71-2.59-.06-.11-.12-.23-.17-.35-.06-.11-.1-.23-.14-.34,0-.02,0-.03,0-.04-.05-.12-.08-.25-.11-.37-.04-.16-.08-.32-.1-.49-.01-.1-.03-.21-.03-.32-.15-1.89.8-3.53.94-3.77.2-.33,1.72-2.79,4.6-3.02.14-.01.29-.02.43-.02.18,0,.35.01.52.03.27.02.54.07.8.14.07.02.13.03.2.05,0,0,.02,0,.03.01.13.03.26.08.38.12.13.05.27.1.4.16.17.08.33.16.49.25.51.29.98.65,1.39,1.06.37.38.7.8.96,1.25.07.12.14.24.2.37.07.13.13.27.19.41.06.16.12.32.17.48.04.14.97,3.33-1.16,5.62Z" fill="#fdd5b7" stroke="#231f20" stroke-miterlimit="10"/>
    <path d="M186.85,239.05c-.28.77-2.8,7.31-9.76,9.96-7.35,2.8-15.99-.13-20.59-6.35-5.36-7.25-4.47-18,1.61-23.63,5.02-4.63,11.79-4.15,13-4.04,6.14.55,10.01,4.13,11.14,5.27,4.28,4.29,7.21,11.65,4.6,18.79Z" fill="none" stroke="#231f20" stroke-miterlimit="10"/>
    <path d="M241.57,237.36c-.34,1.78-1.84,8.19-8.03,12.21-1.24.8-7.45,4.62-14.88,2.22-.94-.3-6.5-2.18-9.55-7.85-3.63-6.76-1.86-15.48,3.22-20.78,4.72-4.92,12.26-6.83,18.52-5.25.03,1.45.31,2.39.78,2.51.45.12.65-.51,2.03-1.46.02,0,.05-.03.07-.04,1.39.64,2.67,1.49,3.78,2.56,5.89,5.68,4.28,14.74,4.06,15.88Z" fill="none" stroke="#231f20" stroke-miterlimit="10"/>
    <path d="M177.97,225.19c3.99,3.92,4.01,10.57.68,14.45-3.34,3.88-8.66,3.39-9.48,3.32-3.43-.32-8.85-2.31-10.19-7.36-1.3-4.88,2.02-9.64,5.82-11.75,3.83-2.13,9.47-2.3,13.18,1.35Z" fill="#592f13"/>
    <path d="M216.47,226.8c-3.99,3.92-4.01,10.57-.68,14.45,3.34,3.88,8.66,3.39,9.48,3.32,3.43-.32,8.85-2.31,10.19-7.36,1.3-4.88-2.02-9.64-5.82-11.75-3.83-2.13-9.47-2.3-13.18,1.35Z" fill="#592f13"/>
    <path d="M177.17,207.69c-.14.77-.97,1.38-1.91,1.74h0c-.43.17-.89.28-1.3.34-1.54.21-1.9-.53-3.57-.39-1.38.11-1.53.65-3.45,1.29-1.61.53-3.84,1.28-4.99.33-.44-.37-.7-.96-.8-1.64-.13-.95.05-2.06.49-2.94.31-.62.77-1.16,1.35-1.61h.01c1.68-1.34,4.31-1.92,6.88-1.71,1.43.11,2.85.46,4.06,1.07.21.11,3.53,1.81,3.24,3.52Z" fill="#ffc762" stroke="#231f20" stroke-miterlimit="10"/>
    <path d="M224.65,212.7c-.46.44-1.05.32-3.29.22,0,0-1.48-.07-3.78-.08-3.84-.02-4.89.57-5.61-.22-.68-.74-.52-2.09-.14-2.94,1.1-2.44,4.95-2.6,6.38-2.66,1.68-.07,4.76-.2,6.18,1.83.84,1.19,1.06,3.08.26,3.85Z" fill="#ffc762" stroke="#231f20" stroke-miterlimit="10"/>
    <path d="M201.37,247.4c-.21,3.47-4.16,4.8-4.47,4.9-1.63.52-4.76.8-6.38-1.35-1.57-2.09-.67-5.09.73-6.77,1.53-1.84,4.43-3.06,6.98-1.86,1.84.86,3.28,2.87,3.14,5.08Z" fill="#daae6d" stroke="#231f20" stroke-miterlimit="10"/>
    <path d="M239.98,265.94c-2.27,2.44-5.82,1.48-6.27,1.36-.72-.19-2.68-.72-3.71-2.59-.06-.11-.12-.23-.17-.35-.06-.11-.1-.23-.14-.34,0-.02,0-.03,0-.04-.05-.12-.08-.25-.11-.37-.04-.16-.08-.32-.1-.49-.01-.1-.03-.21-.03-.32-.15-1.89.8-3.53.94-3.77.2-.33,1.72-2.79,4.6-3.02.14-.01.29-.02.43-.02.18,0,.35.01.52.03.27.02.54.07.8.14.07.02.13.03.2.05,0,0,.02,0,.03.01.13.03.26.08.38.12.13.05.27.1.4.16.17.08.33.16.49.25.51.29.98.65,1.39,1.06.37.38.7.8.96,1.25.07.12.14.24.2.37.07.13.13.27.19.41.06.16.12.32.17.48.04.14.97,3.33-1.16,5.62Z" fill="#f7a7af" stroke="#231f20" stroke-miterlimit="10"/>
    <path d="M162.87,258.05c-.78,1.99-2.66,2.77-3.34,3.06-.43.18-3.82,1.6-6.4-.52-2.41-1.98-1.92-5.27-1.89-5.42.45-2.66,2.76-4.93,5.53-5.08,2.89-.15,4.72,2.08,4.96,2.38s2.2,2.85,1.14,5.58Z" fill="#f7a7af" stroke="#231f20" stroke-miterlimit="10"/>
    <path d="M201.23,271.52c-.31.11-.62.21-.92.3-.26.07-.51.13-.75.19-.03,0-.06,0-.08.02h-.03c-.57.13-1.09.2-1.57.25-.15.02-.29.03-.43.04-.16,0-.31.02-.45.03-.14.01-.26.01-.38.01-.24.01-.45.01-.62.01-.37,0-1-.01-1.78-.08-.13-.01-.26-.02-.4-.04-.12-.01-.23-.02-.35-.04-.03,0-.05,0-.08,0h-.04c-.06-.01-.13-.02-.2-.03-.2-.03-.41-.07-.63-.11-.28-.06-.57-.12-.88-.2-.24-.06-.49-.13-.74-.21-.06-.02-.12-.04-.18-.06-.13-.04-.25-.08-.37-.13-.45-.16-.91-.35-1.37-.58-.08-.04-.16-.08-.23-.12-.97-.5-1.94-1.17-2.82-2.05-1.02-1.02-3.5-3.87-2.7-5.16.99-1.6,5.72,1.43,13.48,1.52,7.83.1,12.04-2.88,12.81-1.54.82,1.44-3.23,6.17-8.29,7.99Z" fill="none" stroke="#231f20" stroke-miterlimit="10"/>
    <path d="M259.47,232.67c.76,2.04,1.71,5.62.64,9.6-.19.72-.43,1.37-.69,1.97" fill="none" stroke="#231f20" stroke-miterlimit="10"/>
    <path d="M263.79,237.33l-3.24.22" fill="none" stroke="#231f20" stroke-miterlimit="10"/>
    <path d="M129.84,239.08c-.48,2.12-.95,5.79.64,9.6.29.68.61,1.3.95,1.87" fill="none" stroke="#231f20" stroke-miterlimit="10"/>
    <path d="M126.17,244.27l3.24-.22" fill="none" stroke="#231f20" stroke-miterlimit="10"/>
    <path d="M162.5,228.76c-.84.07-1.54.74-1.79,1.49-.07.2-.33.98.11,1.61.41.6,1.19.71,1.73.6.7-.15,1.09-.69,1.23-.89.13-.18.44-.64.43-1.28,0-.19-.02-.7-.39-1.09-.48-.51-1.18-.45-1.32-.44Z" fill="#fff"/>
    <path d="M162.44,233.34c-.43.04-.78.38-.91.76-.03.1-.17.5.06.82.21.31.61.36.88.3.36-.07.56-.35.63-.45.07-.09.23-.33.22-.65,0-.1,0-.35-.2-.56-.24-.26-.6-.23-.67-.22Z" fill="#fff"/>
    <path d="M217.21,230.8c-.84.07-1.54.74-1.79,1.49-.07.2-.33.98.11,1.61.41.6,1.19.71,1.73.6.7-.15,1.09-.69,1.23-.89.13-.18.44-.64.43-1.28,0-.19-.02-.7-.39-1.09-.48-.51-1.18-.45-1.32-.44Z" fill="#fff"/>
    <path d="M217.03,235.59c-.43.04-.78.38-.91.76-.03.1-.17.5.06.82.21.31.61.36.88.3.36-.07.56-.35.63-.45.07-.09.23-.33.22-.65,0-.1,0-.35-.2-.56-.24-.26-.6-.23-.67-.22Z" fill="#fff"/>
    <path d="M187.71,263.75c.07.82-.81,2.7-1.94,3.98-.13.14-.26.27-.4.39" fill="none" stroke="#010101" stroke-miterlimit="10"/>
    <path d="M204.93,264.4c-.07.82.21,2.26,1.06,3.82.09.17.26.27.4.39" fill="none" stroke="#010101" stroke-miterlimit="10"/>
    <path d="M191.33,264.4c0,.66-.07,3.92-1.51,6.38-.15.25-.74.16-.97.24" fill="none" stroke="#010101" stroke-miterlimit="10"/>
    <path d="M200.03,265c-.14.65-.19,4.08.88,6.11.1.19.34.29.55.41" fill="none" stroke="#010101" stroke-miterlimit="10"/>
    <path d="M196.02,265.05c.23,1.93.25,4.09-.14,6.39-.04.26-.09.51-.14.76" fill="none" stroke="#231f20" stroke-miterlimit="10"/>
  </g>
</svg>