<?xml version="1.0" encoding="UTF-8"?>
<svg id="Layer_1" data-name="Layer 1" xmlns="http://www.w3.org/2000/svg" viewBox="0 0 400.7 401.18">
  <g>
    <rect x="137.19" y="64.72" width="182.12" height="31.06" fill="none"/>
    <path d="M139.41,70.7l-.84,2.54h-1.08l2.75-8.08h1.26l2.76,8.08h-1.12l-.86-2.54h-2.87ZM142.06,69.88l-.79-2.33c-.18-.53-.3-1.01-.42-1.48h-.02c-.12.48-.25.97-.41,1.46l-.79,2.34h2.43Z" fill="#231f20"/>
    <path d="M145.37,69.01c0-.6-.01-1.09-.05-1.57h.94l.06.96h.02c.29-.55.96-1.09,1.92-1.09.8,0,2.05.48,2.05,2.47v3.47h-1.05v-3.35c0-.94-.35-1.71-1.34-1.71-.7,0-1.24.49-1.42,1.08-.05.13-.07.31-.07.49v3.49h-1.05v-4.23Z" fill="#231f20"/>
    <path d="M155.25,73.24l-.08-.73h-.04c-.32.46-.95.86-1.78.86-1.17,0-1.77-.83-1.77-1.67,0-1.4,1.25-2.17,3.49-2.16v-.12c0-.48-.13-1.34-1.32-1.34-.54,0-1.1.17-1.51.43l-.24-.7c.48-.31,1.17-.52,1.91-.52,1.78,0,2.21,1.21,2.21,2.37v2.17c0,.5.02,1,.1,1.39h-.96ZM155.09,70.28c-1.15-.02-2.46.18-2.46,1.31,0,.68.46,1.01,1,1.01.76,0,1.23-.48,1.4-.97.04-.11.06-.23.06-.34v-1.01Z" fill="#231f20"/>
    <path d="M160.4,65.25c.5-.08,1.16-.16,2-.16,1.03,0,1.79.24,2.27.67.44.38.71.97.71,1.69s-.22,1.31-.62,1.73c-.55.59-1.45.89-2.47.89-.31,0-.6-.01-.84-.07v3.24h-1.04v-7.99ZM161.44,69.15c.23.06.52.08.86.08,1.26,0,2.03-.61,2.03-1.73s-.76-1.58-1.91-1.58c-.46,0-.8.04-.98.08v3.14Z" fill="#231f20"/>
    <path d="M169.65,73.24l-.08-.73h-.04c-.32.46-.95.86-1.78.86-1.17,0-1.77-.83-1.77-1.67,0-1.4,1.25-2.17,3.49-2.16v-.12c0-.48-.13-1.34-1.32-1.34-.54,0-1.1.17-1.51.43l-.24-.7c.48-.31,1.17-.52,1.91-.52,1.78,0,2.21,1.21,2.21,2.37v2.17c0,.5.02,1,.1,1.39h-.96ZM169.49,70.28c-1.15-.02-2.46.18-2.46,1.31,0,.68.46,1.01,1,1.01.76,0,1.23-.48,1.4-.97.04-.11.06-.23.06-.34v-1.01Z" fill="#231f20"/>
    <path d="M177.08,71.66c0,.6.01,1.13.05,1.58h-.94l-.06-.95h-.02c-.28.47-.89,1.08-1.92,1.08-.91,0-2-.5-2-2.54v-3.39h1.05v3.21c0,1.1.34,1.85,1.3,1.85.71,0,1.2-.49,1.39-.96.06-.16.1-.35.1-.54v-3.56h1.05v4.22Z" fill="#231f20"/>
    <path d="M178.83,64.73h1.05v8.52h-1.05v-8.52Z" fill="#231f20"/>
    <path d="M184.88,73.24l-.08-.73h-.04c-.32.46-.95.86-1.78.86-1.17,0-1.77-.83-1.77-1.67,0-1.4,1.25-2.17,3.49-2.16v-.12c0-.48-.13-1.34-1.32-1.34-.54,0-1.1.17-1.51.43l-.24-.7c.48-.31,1.17-.52,1.91-.52,1.78,0,2.21,1.21,2.21,2.37v2.17c0,.5.02,1,.1,1.39h-.96ZM184.72,70.28c-1.15-.02-2.46.18-2.46,1.31,0,.68.46,1.01,1,1.01.76,0,1.23-.48,1.4-.97.04-.11.06-.23.06-.34v-1.01Z" fill="#231f20"/>
  </g>
  <g>
    <path d="M265.19,221.09c-3.48-1.56-16.98-8.18-23.74-24.03-5.57-13.08-3.32-24.84-2.36-28.86-5.08,7.08-13.01,16.7-24.52,26.03-16.22,13.14-31.33,19.05-43.5,23.69-6.55,2.5-14.71,5.22-24.34,7.53v52.44c0,4.91,3.98,8.9,8.89,8.9h100.8c4.91,0,8.89-3.99,8.89-8.9v-56.74s-.08-.04-.12-.06ZM180.15,263.73c-.75.51-1.6.84-2.45,1.12-4.07,1.32-8.5,1.55-12.68.63-1.29-.28-2.59-.68-3.67-1.46-1.07-.77-1.91-1.96-1.99-3.29-.07-1.34.63-2.61,1.45-3.67,2.53-3.25,6.46-5.18,10.5-5.73,3.38-.45,8.29.81,10.37,3.64,1.97,2.67,1.22,6.92-1.53,8.76ZM224.95,259.36c-.05.07-.58.66-1.17,1.16-1.95,1.66-6.13,3.91-16.53,3.73-.35-.01-.52-.01-.73-.02-6.49-.16-14.57-1.62-16.74-5.59-.14-.26-.83-1.51-.39-2.71.52-1.42,2.34-1.92,3.12-2.16,4.32-1.35,8.13,1.91,13.24,2.67,9.09,1.34,15.98-5.69,19.35-2.74.31.27,1.37,1.2,1.41,2.49.04,1.27-.93,2.43-1.56,3.17ZM253.44,265.98c-1.08.77-2.37,1.17-3.67,1.46-4.18.91-8.6.69-12.67-.64-.86-.28-1.71-.61-2.46-1.11-2.75-1.85-3.49-6.1-1.53-8.77,2.08-2.83,7-4.09,10.37-3.63,4.04.54,7.98,2.47,10.5,5.72.83,1.06,1.53,2.33,1.45,3.68-.07,1.32-.91,2.52-1.99,3.29Z" fill="#ffe9cd" stroke="#231f20" stroke-miterlimit="10"/>
    <path d="M280.67,241.12c-.41,1.92-2.19,8.06-6.82,9.89-.64.25-1.28.41-1.87.51-1.57.27-2.79.1-2.79.1-1.86-.26-3.19-1.06-3.88-1.54v-25.29c.53-.5,5.25-4.92,9.48-3.37.83.3,1.63.88,2.71,2.09,4.13,4.62,4.5,11.56,3.17,17.61Z" fill="#ffe9cd" stroke="#231f20" stroke-miterlimit="10"/>
    <path d="M146.73,225.45v20.61c-.43.56-1.71,2.05-3.88,2.55-2.12.49-3.85-.25-4.66-.61-4.65-2.07-6.21-7.7-6.82-9.9-.52-1.87-1.16-5.21-.44-9.49,5.63-.89,10.91-1.97,15.8-3.16Z" fill="#ffe9cd" stroke="#231f20" stroke-miterlimit="10"/>
    <path d="M140.65,227.32c.15,1.65.21,3.66,0,5.92-.21,2.31-.64,4.31-1.09,5.92" fill="none" stroke="#231f20" stroke-miterlimit="10"/>
    <path d="M136.41,233.24h4.23" fill="none" stroke="#231f20" stroke-miterlimit="10"/>
    <path d="M271.79,230.22c-.27,1.64-.47,3.63-.43,5.91.04,2.32.32,4.34.66,5.99" fill="none" stroke="#231f20" stroke-miterlimit="10"/>
    <path d="M275.58,236.44l-4.22-.31" fill="none" stroke="#231f20" stroke-miterlimit="10"/>
    <path d="M185.19,225.7c.27-.29,3.52-3.62,8-2.82,2.69.48,4.35,2.19,4.91,2.82" fill="none" stroke="#231f20" stroke-linecap="round" stroke-miterlimit="10" stroke-width="8"/>
    <path d="M223.64,225.7c.27-.29,3.52-3.62,8-2.82,2.69.48,4.35,2.19,4.91,2.82" fill="none" stroke="#231f20" stroke-linecap="round" stroke-miterlimit="10" stroke-width="8"/>
    <path d="M226.51,256.19c.04,1.27-.93,2.43-1.56,3.17-.05.07-.58.66-1.17,1.16-1.95,1.66-6.13,3.91-16.53,3.73-.35-.01-.52-.01-.73-.02-6.49-.16-14.57-1.62-16.74-5.59-.14-.26-.83-1.51-.39-2.71.52-1.42,2.34-1.92,3.12-2.16,4.32-1.35,8.13,1.91,13.24,2.67,9.09,1.34,15.98-5.69,19.35-2.74.31.27,1.37,1.2,1.41,2.49Z" fill="#a42223" stroke="#231f20" stroke-miterlimit="10"/>
    <path d="M207.03,238.39l-1.25,2.46c-.45.89-.91,1.92-.53,2.84.28.67.95,1.1,1.66,1.26s1.44.07,2.15-.06c.62-.11,1.3-.31,1.58-.87.18-.36.14-.79,0-1.17s-.37-.71-.58-1.05c-.55-.91-.94-1.91-1.15-2.95" fill="none" stroke="#231f20" stroke-linecap="round" stroke-miterlimit="10"/>
    <path d="M255.43,262.69c-.07,1.32-.91,2.52-1.99,3.29s-2.37,1.17-3.67,1.46c-4.18.91-8.6.69-12.67-.64-.86-.28-1.71-.61-2.46-1.11-2.75-1.85-3.49-6.1-1.53-8.77,2.08-2.83,7-4.09,10.37-3.63,4.04.54,7.98,2.47,10.5,5.72.83,1.06,1.53,2.33,1.45,3.68Z" fill="#f69383" stroke="#231f20" stroke-miterlimit="10"/>
    <path d="M180.15,263.73c-.75.51-1.6.84-2.45,1.12-4.07,1.32-8.5,1.55-12.68.63-1.29-.28-2.59-.68-3.67-1.46-1.07-.77-1.91-1.96-1.99-3.29-.07-1.34.63-2.61,1.45-3.67,2.53-3.25,6.46-5.18,10.5-5.73,3.38-.45,8.29.81,10.37,3.64,1.97,2.67,1.22,6.92-1.53,8.76Z" fill="#f69383" stroke="#231f20" stroke-miterlimit="10"/>
    <path d="M175.93,222.11c.61.15,1.15.49,1.72.76,1.71.84,3.67,1.15,5.56.9" fill="none" stroke="#231f20" stroke-linecap="round" stroke-miterlimit="10"/>
    <path d="M175.84,225.35c2.04.53,4.15.79,6.26.77,1.07,0,2.16-.09,3.12-.54" fill="none" stroke="#231f20" stroke-linecap="round" stroke-miterlimit="10"/>
    <path d="M239.09,224.89c1.94,1.25,4.29,1.86,6.59,1.71" fill="none" stroke="#231f20" stroke-linecap="round" stroke-miterlimit="10"/>
    <path d="M239.34,227.47c-.01.98.93,1.69,1.83,2.09.77.34,1.58.57,2.4.71" fill="none" stroke="#231f20" stroke-linecap="round" stroke-miterlimit="10"/>
    <path d="M239.09,168.2c-5.08,7.08-13.01,16.7-24.52,26.03-16.22,13.14-31.33,19.05-43.5,23.69-6.55,2.5-14.71,5.22-24.34,7.53-4.89,1.19-10.17,2.27-15.8,3.16-4.16.66-8.52,1.22-13.07,1.65,7.13-2.97,15.75-8.04,18.55-16.73,1.77-5.5-.01-8.72,0-16.71,0-10.66,3.16-21.51,7.57-28.62,9.93-16.01,30.21-19.42,35.59-20.32,31.45-5.28,55.9,16.93,59.52,20.32Z" fill="#feda00" stroke="#231f20" stroke-linecap="round" stroke-miterlimit="10"/>
    <path d="M146.73,246.06v31.83c-3.86-.04-8.88-.47-14.52-2.01-7.61-2.07-13.39-5.33-17.17-7.89,1.72-.46,3.55-1.09,5.41-1.95,10.09-4.68,15.38-13.33,17.74-18.04.81.36,2.54,1.1,4.66.61,2.17-.5,3.45-1.99,3.88-2.55Z" fill="#feda00" stroke="#231f20" stroke-linecap="round" stroke-miterlimit="10"/>
    <path d="M275.57,200.35c-2.05,10.25-7.35,17.29-10.38,20.74-3.48-1.56-16.98-8.18-23.74-24.03-5.57-13.08-3.32-24.84-2.36-28.86,12.23-4.91,25.22-3.08,32.26,4.62,7.99,8.75,5.37,21.8,4.22,27.53Z" fill="#feda00" stroke="#231f20" stroke-linecap="round" stroke-miterlimit="10"/>
    <line x1="265.19" y1="221.1" x2="265.19" y2="221.09" fill="none" stroke="#231f20" stroke-linecap="round" stroke-miterlimit="10"/>
    <path d="M294.33,262.95c-2.54,3.2-8.16,9.34-17.42,12.69-4.47,1.62-8.52,2.13-11.6,2.25v-27.81c.69.48,2.02,1.28,3.88,1.54,0,0,1.22.17,2.79-.1,2.13,7.31,7.59,12.54,13.84,13.24,3.74.41,6.82-.9,8.51-1.81Z" fill="#fdda00" stroke="#231f20" stroke-linecap="round" stroke-miterlimit="10"/>
    <line x1="265.32" y1="221.15" x2="265.31" y2="221.15" fill="none" stroke="#231f20" stroke-linecap="round" stroke-miterlimit="10"/>
    <path d="M189.48,255.74c2.26.99,8.63,3.62,15.35,4.12,3.07.23,5.93,0,5.93,0,.96-.08,2.77-.26,6.3-1.04,2.44-.54,5.67-1.36,9.46-2.63" fill="none" stroke="#231f20" stroke-miterlimit="10"/>
  </g>
</svg>